#!OML:ASF H:\Punching\Project 1\Capture day 1\Session 1\female.ASF
:FULLY-SPECIFIED
:DEGREES
1313
root -0.976087 15.464 9.59354 14.9021 -12.9304 -3.82345
lowerback 0.974094 -2.51486 4.43501
upperback -5.79594 -3.10763 1.67422
thorax -6.73373 -1.73879 -0.511279
lowerneck -2.52297 10.8609 18.1647
upperneck 27.038 16.2807 -11.8515
head 11.7793 8.16089 -5.41064
rclavicle -3.10921e-014 1.49089e-016
rhumerus 12.3165 45.3957 -72.8549
rradius 126.756
rwrist -23.796
rhand -16.8786 -6.00833
rfingers 7.12502
rthumb 9.35248 -35.7809
lclavicle -3.10921e-014 1.49089e-016
lhumerus 20.8055 -48.1869 49.6447
lradius 112.517
lwrist 44.2077
lhand -7.77493 33.9013
lfingers 7.12502
lthumb 18.1254 63.0768
rfemur -4.83383 7.12744 16.0938
rtibia 13.686
rfoot -18.2678 -15.5523
rtoes -10.5825
lfemur -38.7734 -3.17664 -0.36801
ltibia 25.2244
lfoot 3.5271 16.5698
ltoes 2.96962
1314
root -0.898552 15.439 9.69747 15.0619 -13.3892 -3.99506
lowerback 1.0409 -2.55333 4.4109
upperback -5.74559 -3.15557 1.72924
thorax -6.71591 -1.75874 -0.43565
lowerneck -2.37177 10.9773 18.4357
upperneck 26.6709 16.4538 -12.0449
head 11.6852 8.25236 -5.49682
rclavicle -4.53897e-014 7.70291e-015
rhumerus 12.292 45.917 -72.2936
rradius 127.679
rwrist -23.2457
rhand -16.7927 -5.41505
rfingers 7.12502
rthumb 9.43533 -35.1838
lclavicle -4.53897e-014 7.70291e-015
lhumerus 20.7655 -49.0524 48.8384
lradius 113.357
lwrist 42.4701
lhand -7.52694 33.2419
lfingers 7.12502
lthumb 18.364 62.3951
rfemur -4.37521 7.31095 15.7874
rtibia 12.9985
rfoot -18.1341 -15.3876
rtoes -11.0039
lfemur -39.1547 -2.07233 -1.03098
ltibia 26.6048
lfoot 2.88486 15.1379
ltoes 2.21398
1315
root -0.819522 15.414 9.80125 15.2198 -13.8543 -4.13548
lowerback 1.12137 -2.59099 4.33786
upperback -5.683 -3.2046 1.77694
thorax -6.69001 -1.77656 -0.340287
lowerneck -2.26016 11.0995 18.707
upperneck 26.2869 16.6261 -12.2339
head 11.5934 8.34218 -5.5784
rclavicle -1.09176e-014 1.32192e-014
rhumerus 12.2139 46.3722 -71.7322
rradius 128.53
rwrist -22.7019
rhand -16.7067 -4.80005
rfingers 7.12502
rthumb 9.5183 -34.5651
lclavicle -1.09176e-014 1.32192e-014
lhumerus 20.6285 -49.889 48.0775
lradius 114.092
lwrist 40.7639
lhand -7.10475 32.4619
lfingers 7.12502
lthumb 18.7701 61.5763
rfemur -3.95222 7.493 15.4358
rtibia 12.3543
rfoot -18.0093 -15.228
rtoes -11.3962
lfemur -39.5842 -0.991166 -1.77409
ltibia 28.1602
lfoot 1.86151 13.8726
ltoes 1.31293
1316
root -0.739941 15.397 9.90406 15.3798 -14.3249 -4.24507
lowerback 1.22319 -2.62513 4.20052
upperback -5.60971 -3.25099 1.82499
thorax -6.66043 -1.78949 -0.208565
lowerneck -2.19999 11.2296 18.9653
upperneck 25.8874 16.799 -12.4151
head 11.5052 8.4295 -5.65099
rclavicle -2.48357e-014 -1.46107e-014
rhumerus 12.0734 46.7589 -71.1699
rradius 129.31
rwrist -22.1661
rhand -16.6411 -4.14757
rfingers 7.12502
rthumb 9.58166 -33.9097
lclavicle -2.48357e-014 -1.46107e-014
lhumerus 20.3868 -50.6921 47.3867
lradius 114.722
lwrist 39.158
lhand -6.54657 31.5783
lfingers 7.12502
lthumb 19.3069 60.6399
rfemur -3.5753 7.66914 15.0479
rtibia 11.746
rfoot -17.8802 -15.0718
rtoes -11.741
lfemur -40.0412 -0.0321967 -2.521
ltibia 29.7653
lfoot 0.610691 12.9545
ltoes 0.512741
1317
root -0.660092 15.376 10.0046 15.5483 -14.8 -4.31747
lowerback 1.34675 -2.65269 3.9831
upperback -5.53052 -3.29141 1.87404
thorax -6.63132 -1.79524 -0.0310693
lowerneck -2.19136 11.3645 19.2082
upperneck 25.4758 16.9686 -12.5888
head 11.4208 8.51224 -5.71514
rclavicle -4.19591e-014 -1.5207e-014
rhumerus 11.8611 47.0671 -70.6189
rradius 130.023
rwrist -21.663
rhand -16.5622 -3.45733
rfingers 7.12502
rthumb 9.65773 -33.2159
lclavicle -4.19591e-014 -1.5207e-014
lhumerus 20.0234 -51.4707 46.787
lradius 115.264
lwrist 37.7166
lhand -5.92101 30.6369
lfingers 7.12502
lthumb 19.9083 59.6371
rfemur -3.26413 7.82574 14.6112
rtibia 11.2035
rfoot -17.7622 -14.9162
rtoes -12.0502
lfemur -40.553 0.769049 -3.22717
ltibia 31.3486
lfoot -0.62647 12.3711
ltoes 0.310921
